<svg width="1920" height="1128" viewBox="0 0 1920 1128" fill="none" xmlns="http://www.w3.org/2000/svg">
<path d="M1920 0H0V1110.93C662.473 760.343 1095.67 1171.8 1896.06 1123.7C1904.2 1123.21 1912.18 1122.61 1920 1121.92V0Z" fill="url(#paint0_radial_1102_735)"/>
<path d="M47.2304 675.016C112.72 682.745 173.065 672.33 224.11 642.205C277.037 610.97 325.985 569.169 341.257 501.494C356.682 433.14 337.382 351.469 307.069 274.587C277.388 199.309 227.094 135.289 172.753 74.121C151.99 50.75 131.271 24.8448 110 0.104882L6.12797e-05 0.104885L6.07928e-05 667.69C15.8099 670.818 31.5968 673.171 47.2304 675.016Z" fill="url(#paint1_radial_1102_735)"/>
<g filter="url(#filter0_d_1102_735)">
<path d="M1537.97 670.367C1572.38 566.452 1617.85 506.49 1359.49 351.972C1213.69 264.773 1178.5 141.087 1182.22 46.6393L1920.76 43.1298C1919.89 227.229 1917.82 866.256 1917.82 866.256C1917.82 866.256 1479.89 845.798 1537.97 670.367Z" fill="url(#paint2_linear_1102_735)" shape-rendering="crispEdges"/>
</g>
<g filter="url(#filter1_d_1102_735)">
<path d="M1474.09 221.023C1235.28 217.823 1181.52 91.6762 1169 -1.00024H1920V727.238C1919.21 737.137 1775.16 742.009 1736 545.057C1713.74 433.092 1772.61 225.024 1474.09 221.023Z" fill="url(#paint3_linear_1102_735)"/>
</g>
<defs>
<filter id="filter0_d_1102_735" x="1152.96" y="12.1299" width="810.799" height="895.126" filterUnits="userSpaceOnUse" color-interpolation-filters="sRGB">
<feFlood flood-opacity="0" result="BackgroundImageFix"/>
<feColorMatrix in="SourceAlpha" type="matrix" values="0 0 0 0 0 0 0 0 0 0 0 0 0 0 0 0 0 0 127 0" result="hardAlpha"/>
<feOffset dx="7" dy="5"/>
<feGaussianBlur stdDeviation="18"/>
<feComposite in2="hardAlpha" operator="out"/>
<feColorMatrix type="matrix" values="0 0 0 0 0 0 0 0 0 0 0 0 0 0 0 0 0 0 0.25 0"/>
<feBlend mode="normal" in2="BackgroundImageFix" result="effect1_dropShadow_1102_735"/>
<feBlend mode="normal" in="SourceGraphic" in2="effect1_dropShadow_1102_735" result="shape"/>
</filter>
<filter id="filter1_d_1102_735" x="1140" y="-32.0002" width="822.997" height="804" filterUnits="userSpaceOnUse" color-interpolation-filters="sRGB">
<feFlood flood-opacity="0" result="BackgroundImageFix"/>
<feColorMatrix in="SourceAlpha" type="matrix" values="0 0 0 0 0 0 0 0 0 0 0 0 0 0 0 0 0 0 127 0" result="hardAlpha"/>
<feOffset dx="7" dy="5"/>
<feGaussianBlur stdDeviation="18"/>
<feComposite in2="hardAlpha" operator="out"/>
<feColorMatrix type="matrix" values="0 0 0 0 0 0 0 0 0 0 0 0 0 0 0 0 0 0 0.25 0"/>
<feBlend mode="normal" in2="BackgroundImageFix" result="effect1_dropShadow_1102_735"/>
<feBlend mode="normal" in="SourceGraphic" in2="effect1_dropShadow_1102_735" result="shape"/>
</filter>
<radialGradient id="paint0_radial_1102_735" cx="0" cy="0" r="1" gradientUnits="userSpaceOnUse" gradientTransform="translate(88.5467 -88.6169) rotate(36.6378) scale(1942.77 4483.67)">
<stop stop-opacity="0"/>
<stop offset="0.0001" stop-color="#2E33A6" stop-opacity="0.44"/>
<stop offset="0.463542" stop-color="#091235" stop-opacity="0.3"/>
<stop offset="0.916849" stop-color="#0E1157" stop-opacity="0.12"/>
<stop offset="1" stop-color="#090B40" stop-opacity="0"/>
</radialGradient>
<radialGradient id="paint1_radial_1102_735" cx="0" cy="0" r="1" gradientUnits="userSpaceOnUse" gradientTransform="translate(609.966 963.753) rotate(-128.815) scale(1144.44 847.844)">
<stop stop-color="#55EDFD" stop-opacity="0.42"/>
<stop offset="1" stop-color="#091235" stop-opacity="0"/>
</radialGradient>
<linearGradient id="paint2_linear_1102_735" x1="1655.04" y1="149.583" x2="1368.97" y2="642.007" gradientUnits="userSpaceOnUse">
<stop stop-color="#814AC7"/>
<stop offset="1" stop-color="#33283B" stop-opacity="0.45"/>
</linearGradient>
<linearGradient id="paint3_linear_1102_735" x1="1905.95" y1="14.0013" x2="1584.98" y2="459.266" gradientUnits="userSpaceOnUse">
<stop stop-color="#894CC7"/>
<stop offset="0.421875" stop-color="#9956AA"/>
<stop offset="1" stop-color="#B240CE"/>
</linearGradient>
</defs>
</svg>
