<svg width="19" height="19" viewBox="0 0 19 19" fill="none" xmlns="http://www.w3.org/2000/svg">
<path d="M18.439 0.56098C17.691 -0.186993 16.4782 -0.186993 15.7302 0.56098L9.5 6.79118L3.2698 0.56098C2.52183 -0.186993 1.30895 -0.186993 0.56098 0.56098C-0.186993 1.30895 -0.186993 2.52183 0.56098 3.2698L6.79118 9.5L0.56098 15.7302C-0.186993 16.4782 -0.186993 17.691 0.56098 18.439C1.30895 19.187 2.52183 19.187 3.2698 18.439L9.5 12.2088L15.7302 18.439C16.4782 19.187 17.691 19.187 18.439 18.439C19.187 17.691 19.187 16.4782 18.439 15.7302L12.2088 9.5L18.439 3.2698C19.187 2.52183 19.187 1.30895 18.439 0.56098Z" fill="#8C4EC4"/>
</svg>
