<svg width="81" height="68" viewBox="0 0 81 68" fill="none" xmlns="http://www.w3.org/2000/svg">
<path d="M78.4788 18.1195L76.4415 5.59718C75.9385 2.5259 73.0335 0.440935 69.9398 0.927844L5.35075 11.2778C2.25711 11.7772 0.156958 14.6737 0.647412 17.7324L1.38938 22.3394C1.38938 22.3518 1.38938 22.3643 1.38938 22.3893V61.7915C1.38938 64.9626 3.99256 67.547 7.18681 67.547H37.6327H74.2156H74.6432C77.8374 67.547 80.4406 64.9626 80.4406 61.7915V22.3893C80.428 20.6914 79.6735 19.1807 78.4788 18.1195ZM2.50862 17.4453C2.18165 15.3978 3.57756 13.4626 5.65256 13.1255L70.2542 2.78809C72.3166 2.451 74.2659 3.8493 74.6054 5.9093L76.4038 16.9459C75.8504 16.7711 75.2719 16.6463 74.6557 16.6463C74.6054 16.6463 74.5677 16.6712 74.5174 16.6712C74.4168 16.6712 74.3288 16.6463 74.2407 16.6463H7.18681C5.38847 16.6463 3.79135 17.4828 2.72241 18.7687L2.50862 17.4453ZM3.27575 61.7915V22.3893C3.27575 20.2544 5.02378 18.5065 7.18681 18.5065H51.1642L36.9285 65.6618H7.18681C5.02378 65.6618 3.27575 63.9264 3.27575 61.7915ZM38.8903 65.6618L53.126 18.5065H74.203C76.3535 18.5065 78.1141 20.2419 78.1141 22.3893V27.558V29.7928V61.7915C78.1141 63.9264 76.366 65.6743 74.203 65.6743H38.8903V65.6618Z" fill="#55ECFD"/>
<path d="M54.0315 46.4977C54.0441 46.5101 54.0441 46.5101 54.0315 46.4977C54.0441 46.5101 54.0441 46.5101 54.0315 46.4977C56.0939 49.0695 59.175 50.5427 62.495 50.5427C65.815 50.5427 68.896 49.0695 70.9585 46.4977C70.9585 46.4977 70.9585 46.4977 70.9585 46.4852C72.4927 44.6 73.3478 42.2154 73.3478 39.7683C73.3478 33.8255 68.481 28.9939 62.495 28.9939C56.5089 28.9939 51.6421 33.8255 51.6421 39.7683C51.6421 42.2278 52.4972 44.6124 54.0315 46.4977ZM62.495 48.6825C60.0175 48.6825 57.691 47.6837 56.0185 45.9234C57.691 44.163 60.0175 43.1642 62.495 43.1642C64.9724 43.1642 67.2989 44.163 68.9715 45.9234C67.3115 47.6837 64.985 48.6825 62.495 48.6825ZM62.495 30.8666C67.4372 30.8666 71.4615 34.8618 71.4615 39.7683C71.4615 41.4413 70.9836 43.0144 70.1159 44.4002C68.1038 42.4026 65.3874 41.279 62.4824 41.279C59.5774 41.279 56.861 42.4026 54.8489 44.4002C53.9812 43.0144 53.5033 41.4413 53.5033 39.7683C53.5285 34.8618 57.5527 30.8666 62.495 30.8666Z" fill="#55ECFD"/>
<path d="M62.4951 40.7046C64.6204 40.7046 66.3559 38.9942 66.3559 36.8842C66.3559 34.7743 64.6204 33.0514 62.4951 33.0514C60.3698 33.0514 58.6469 34.7743 58.6469 36.8842C58.6469 38.9942 60.3698 40.7046 62.4951 40.7046ZM62.4951 34.9241C63.5892 34.9241 64.4695 35.8105 64.4695 36.8842C64.4695 37.9579 63.5766 38.8319 62.4951 38.8319C61.4136 38.8319 60.5333 37.9579 60.5333 36.8842C60.5333 35.8105 61.4136 34.9241 62.4951 34.9241Z" fill="#55ECFD"/>
<path d="M12.7956 33.1762C16.1785 33.1762 18.9326 30.4421 18.9326 27.0712C18.9326 23.7002 16.1785 20.9661 12.7956 20.9661C9.40015 20.9661 6.64606 23.7002 6.64606 27.0712C6.64606 30.4421 9.40015 33.1762 12.7956 33.1762ZM12.7956 22.8388C15.1347 22.8388 17.0462 24.7365 17.0462 27.0712C17.0462 29.4058 15.1347 31.3035 12.7956 31.3035C10.4439 31.3035 8.53242 29.4058 8.53242 27.0712C8.53242 24.7365 10.4439 22.8388 12.7956 22.8388Z" fill="#55ECFD"/>
<path d="M23.3215 25.6978H38.6639C39.1795 25.6978 39.6071 25.2733 39.6071 24.7614C39.6071 24.2496 39.1795 23.8251 38.6639 23.8251H23.3215C22.8059 23.8251 22.3783 24.2496 22.3783 24.7614C22.3783 25.2733 22.7933 25.6978 23.3215 25.6978Z" fill="#55ECFD"/>
<path d="M23.3215 30.3173H33.2437C33.7593 30.3173 34.1869 29.8928 34.1869 29.3809C34.1869 28.8691 33.7593 28.4446 33.2437 28.4446H23.3215C22.8059 28.4446 22.3783 28.8691 22.3783 29.3809C22.3783 29.8928 22.7933 30.3173 23.3215 30.3173Z" fill="#55ECFD"/>
<path d="M42.336 37.9331C42.336 37.4212 41.9084 36.9967 41.3928 36.9967H6.8975C6.38189 36.9967 5.95432 37.4212 5.95432 37.9331C5.95432 38.4449 6.38189 38.8694 6.8975 38.8694H41.3928C41.9084 38.8694 42.336 38.4574 42.336 37.9331Z" fill="#55ECFD"/>
<path d="M12.4813 45.7859C11.9657 45.7859 11.5381 46.2104 11.5381 46.7223C11.5381 47.2341 11.9657 47.6586 12.4813 47.6586H31.9737C32.4893 47.6586 32.9169 47.2341 32.9169 46.7223C32.9169 46.2104 32.4893 45.7859 31.9737 45.7859H12.4813Z" fill="#55ECFD"/>
<path d="M31.9737 50.3679H12.4813C11.9657 50.3679 11.5381 50.7924 11.5381 51.3043C11.5381 51.8162 11.9657 52.2407 12.4813 52.2407H31.9737C32.4893 52.2407 32.9169 51.8162 32.9169 51.3043C32.9169 50.7924 32.5019 50.3679 31.9737 50.3679Z" fill="#55ECFD"/>
<path d="M73.5114 56.2357H51.5038C50.9882 56.2357 50.5606 56.6602 50.5606 57.1721C50.5606 57.684 50.9882 58.1084 51.5038 58.1084H73.5114C74.027 58.1084 74.4546 57.684 74.4546 57.1721C74.4546 56.6602 74.027 56.2357 73.5114 56.2357Z" fill="#55ECFD"/>
<path d="M27.7105 54.9373H16.757C16.2414 54.9373 15.8138 55.3617 15.8138 55.8736C15.8138 56.3855 16.2414 56.81 16.757 56.81H27.7105C28.2261 56.81 28.6537 56.3855 28.6537 55.8736C28.6537 55.3617 28.2261 54.9373 27.7105 54.9373Z" fill="#55ECFD"/>
</svg>
