<svg width="74" height="66" viewBox="0 0 74 66" fill="none" xmlns="http://www.w3.org/2000/svg">
<path d="M74 5.38773V53.8773C74 56.8486 71.5863 59.265 68.6182 59.265H32.2911C31.5484 59.265 30.9456 58.6616 30.9456 57.9181C30.9456 57.1746 31.5484 56.5711 32.2911 56.5711H68.6182C70.1036 56.5711 71.3091 55.3643 71.3091 53.8773V5.38773C71.3091 3.90206 70.1036 2.69386 68.6182 2.69386H12.1094C10.6253 2.69386 9.41848 3.90206 9.41848 5.38773V33.6733C9.41848 34.4168 8.81571 35.0202 8.07303 35.0202C7.33034 35.0202 6.72758 34.4168 6.72758 33.6733V5.38773C6.72758 2.4164 9.14131 0 12.1094 0H68.6182C71.5863 0 74 2.4164 74 5.38773ZM12.1094 33.6733C12.1094 34.4168 12.7121 35.0202 13.4548 35.0202C14.1975 35.0202 14.8003 34.4168 14.8003 33.6733V14.8162H65.9273V51.1834H32.2911C31.5484 51.1834 30.9456 51.7868 30.9456 52.5303C30.9456 53.2738 31.5484 53.8773 32.2911 53.8773H67.2728C68.0154 53.8773 68.6182 53.2738 68.6182 52.5303V13.4693C68.6182 12.7258 68.0154 12.1224 67.2728 12.1224H13.4548C12.7121 12.1224 12.1094 12.7258 12.1094 13.4693V33.6733ZM14.1275 9.42852C15.2416 9.42852 16.1457 8.52338 16.1457 7.40812C16.1457 6.29287 15.2416 5.38773 14.1275 5.38773C13.0135 5.38773 12.1094 6.29287 12.1094 7.40812C12.1094 8.52338 13.0135 9.42852 14.1275 9.42852ZM22.873 7.40812C22.873 6.29287 21.9688 5.38773 20.8548 5.38773C19.7408 5.38773 18.8366 6.29287 18.8366 7.40812C18.8366 8.52338 19.7408 9.42852 20.8548 9.42852C21.9688 9.42852 22.873 8.52338 22.873 7.40812ZM29.6002 7.40812C29.6002 6.29287 28.6961 5.38773 27.582 5.38773C26.468 5.38773 25.5639 6.29287 25.5639 7.40812C25.5639 8.52338 26.468 9.42852 27.582 9.42852C28.6961 9.42852 29.6002 8.52338 29.6002 7.40812ZM28.2548 39.061V59.265C28.2548 60.4651 26.8017 61.0618 25.9581 60.2173L20.1821 54.4349L9.02426 65.605C8.49954 66.1317 7.64652 66.1317 7.12179 65.605L0.394553 58.8703C-0.131518 58.3437 -0.131518 57.4924 0.394553 56.9658L11.5524 45.7957L5.77635 40.0133C4.92871 39.1647 5.53417 37.7141 6.72758 37.7141H26.9093C27.652 37.7141 28.2548 38.3175 28.2548 39.061ZM25.5639 40.408H9.97549L14.4061 44.8434C14.9321 45.37 14.9321 46.2213 14.4061 46.748L3.24825 57.9181L8.07303 62.7482L19.2308 51.5781C19.7569 51.0514 20.6072 51.0514 21.1333 51.5781L25.5639 56.0135V40.408Z" fill="#55ECFD"/>
</svg>
