<svg width="50" height="50" viewBox="0 0 50 50" fill="none" xmlns="http://www.w3.org/2000/svg">
<path d="M29.7561 19.3902C31.3415 20.7317 32.3171 22.6829 32.3171 25C32.3171 29.0244 29.0244 32.3171 25 32.3171C20.9756 32.3171 17.6829 29.0244 17.6829 25C17.6829 24.1463 17.8049 23.2927 18.1707 22.561H14.6341V32.439C14.6341 34.1463 16.0976 35.6098 17.8049 35.6098H31.9512C33.6585 35.6098 35.122 34.2683 35.122 32.439V19.3902H29.7561ZM32.9268 17.9268C34.0244 17.9268 34.8781 17.0732 34.8781 15.9756C34.8781 14.878 34.0244 14.0244 32.9268 14.0244C31.8293 14.0244 30.9756 14.878 30.9756 15.9756C30.9756 17.0732 31.8293 17.9268 32.9268 17.9268ZM25 28.6585C27.0732 28.6585 28.6585 26.9512 28.6585 25C28.6585 23.0488 26.9512 21.3415 25 21.3415C23.0488 21.3415 21.3415 23.0488 21.3415 25C21.3415 26.9512 22.9268 28.6585 25 28.6585ZM25 0C11.2195 0 0 11.2195 0 25C0 38.7805 11.2195 50 25 50C38.7805 50 50 38.7805 50 25C50 11.2195 38.7805 0 25 0ZM38.4146 35.122C38.4146 37.439 36.5854 39.2683 34.2683 39.2683H15.2439C12.9268 39.2683 11.0976 37.439 11.0976 35.122V16.2195C11.0976 13.9024 12.9268 12.0732 15.2439 12.0732H34.1463C36.4634 12.0732 38.2927 13.9024 38.2927 16.2195V35.122H38.4146ZM32.3171 25C32.3171 29.0244 29.0244 32.3171 25 32.3171C20.9756 32.3171 17.6829 29.0244 17.6829 25C17.6829 24.1463 17.8049 23.2927 18.1707 22.561H14.6341V32.439C14.6341 34.1463 16.0976 35.6098 17.8049 35.6098H31.9512C33.6585 35.6098 35.122 34.2683 35.122 32.439V19.3902H30C31.3415 20.7317 32.3171 22.8049 32.3171 25ZM32.9268 17.9268C34.0244 17.9268 34.8781 17.0732 34.8781 15.9756C34.8781 14.878 34.0244 14.0244 32.9268 14.0244C31.8293 14.0244 30.9756 14.878 30.9756 15.9756C30.9756 17.0732 31.8293 17.9268 32.9268 17.9268ZM25 28.6585C27.0732 28.6585 28.6585 26.9512 28.6585 25C28.6585 23.0488 26.9512 21.3415 25 21.3415C23.0488 21.3415 21.3415 23.0488 21.3415 25C21.3415 26.9512 22.9268 28.6585 25 28.6585ZM29.7561 19.3902C31.3415 20.7317 32.3171 22.6829 32.3171 25C32.3171 29.0244 29.0244 32.3171 25 32.3171C20.9756 32.3171 17.6829 29.0244 17.6829 25C17.6829 24.1463 17.8049 23.2927 18.1707 22.561H14.6341V32.439C14.6341 34.1463 16.0976 35.6098 17.8049 35.6098H31.9512C33.6585 35.6098 35.122 34.2683 35.122 32.439V19.3902H29.7561ZM32.9268 13.9024C31.8293 13.9024 30.9756 14.7561 30.9756 15.8537C30.9756 16.9512 31.8293 17.8049 32.9268 17.8049C34.0244 17.8049 34.8781 16.9512 34.8781 15.8537C34.8781 14.878 34.0244 13.9024 32.9268 13.9024ZM25 21.3415C22.9268 21.3415 21.3415 23.0488 21.3415 25C21.3415 26.9512 23.0488 28.6585 25 28.6585C26.9512 28.6585 28.6585 26.9512 28.6585 25C28.6585 23.0488 27.0732 21.3415 25 21.3415Z" fill="white"/>
</svg>
