<svg width="50" height="50" viewBox="0 0 50 50" fill="none" xmlns="http://www.w3.org/2000/svg">
<path d="M32.9268 30.4878V30.9756C32.9268 31.4634 32.6829 31.9512 32.439 32.1951L31.0976 33.5365C30.7317 33.9024 30.3659 34.0243 29.8781 34.0243C22.3171 33.6585 16.2195 27.5609 15.9756 20.1219C15.9756 19.6341 16.0976 19.1463 16.4634 18.7804L17.8049 17.439C18.1707 17.0731 18.6585 16.9512 19.0244 16.9512H19.5122C20.2439 16.9512 20.9756 17.439 21.2195 18.0487L22.439 21.3414C22.6829 21.9512 22.561 22.6829 22.0732 23.1707L21.5854 23.6585C21.3415 23.9024 21.3415 24.2682 21.4634 24.5121C22.0732 25.3658 23.4146 27.0731 25.3659 28.4146C25.6098 28.5365 25.9756 28.5365 26.2195 28.2926L26.8293 27.8048C27.3171 27.317 28.0488 27.1951 28.6585 27.439L31.9512 28.6585C32.561 29.1463 32.9268 29.756 32.9268 30.4878Z" fill="white"/>
<path d="M25 0C11.2195 0 0 11.2195 0 25C0 38.7805 11.2195 50 25 50C38.7805 50 50 38.7805 50 25C50 11.2195 38.7805 0 25 0ZM24.3902 39.0244C21.9512 39.0244 19.5122 38.4146 17.439 37.0732L11.7073 39.0244H11.5854C11.4634 39.0244 11.3415 39.0244 11.2195 38.9024C10.9756 38.7805 10.9756 38.5366 10.9756 38.2927L12.9268 32.561C11.5854 30.4878 10.9756 28.0488 10.9756 25.6098C10.9756 18.1707 16.9512 12.1951 24.3902 12.1951C31.8293 12.1951 37.8049 18.1707 37.8049 25.6098C37.8049 33.0488 31.8293 39.0244 24.3902 39.0244Z" fill="white"/>
</svg>
