<svg width="234" height="235" viewBox="0 0 234 235" fill="none" xmlns="http://www.w3.org/2000/svg">
<path d="M186.878 174.854C195.303 179.137 205.9 175.196 210.525 166.067C215.15 156.938 212.073 146.06 203.648 141.797C203.206 141.576 202.763 141.395 202.321 141.214C203.889 136.167 205.076 131.079 205.86 125.972C206.342 125.972 206.825 125.972 207.328 125.912C216.939 125.047 224.58 116.22 224.379 106.166C224.178 96.1119 216.215 88.672 206.604 89.5366C206.101 89.5768 205.598 89.6573 205.116 89.7578C204.11 84.7711 202.743 79.9251 200.994 75.1997C201.436 74.9383 201.878 74.6769 202.301 74.3753C210.525 68.6044 213.159 57.2234 208.172 48.9591C203.186 40.6947 192.468 38.6638 184.244 44.4147C183.822 44.7163 183.42 45.038 183.037 45.3598C179.78 41.7605 176.221 38.4427 172.36 35.4064C172.622 34.964 172.903 34.5015 173.144 34.0391C177.769 24.9101 183.842 14.9366 175.336 10.7944C155.691 1.20299 147.246 9.40697 142.621 18.5359C142.379 19.0185 142.178 19.481 141.977 19.9636C137.252 18.6365 132.466 17.7316 127.64 17.2289C127.681 16.7262 127.701 16.2034 127.681 15.7007C127.48 5.64682 130.456 0.217705 120.804 0.0367342C99.7509 -0.365422 92.6528 8.76353 92.8539 18.8174C92.874 19.3402 92.9142 19.863 92.9545 20.3657C88.1286 21.7331 83.3831 23.5026 78.7784 25.634C78.5573 25.1916 78.3361 24.7492 78.0747 24.3069C73.0879 16.0426 62.3705 14.0117 54.1464 19.7625C45.9223 25.5334 43.2882 36.9145 48.2749 45.1788C48.5363 45.601 48.8178 46.0032 49.0993 46.3852C45.4598 50.0248 42.0415 53.986 38.8845 58.2287C38.4824 57.9673 38.0601 57.7261 37.6177 57.5049C29.1926 53.2219 18.5958 57.163 13.971 66.292C9.34616 75.4209 12.4227 86.2993 20.8478 90.5621C21.2902 90.7833 21.7326 90.9643 22.1749 91.1452C20.6065 96.1923 19.4202 101.28 18.636 106.387C18.1534 106.387 17.6708 106.387 17.1681 106.447C7.55656 107.312 -0.0844058 116.139 0.116672 126.193C0.31775 136.247 8.28045 143.687 17.892 142.822C18.3947 142.782 18.8974 142.702 19.38 142.601C20.3853 147.588 21.7527 152.434 23.5021 157.159C23.0597 157.421 22.6173 157.682 22.1951 157.984C13.971 163.755 11.3368 175.136 16.3236 183.4C21.3103 191.664 37.7987 195.505 46.0429 189.754C46.4652 189.452 41.0763 187.321 41.4583 186.999C44.7158 190.598 48.2749 193.916 52.1356 196.953C51.8742 197.395 51.5927 197.857 51.3514 198.32C46.7065 207.449 49.8031 218.327 58.2283 222.59C66.6534 226.873 77.2503 222.932 81.8751 213.803C82.1163 213.32 82.3174 212.858 82.5185 212.375C87.2438 213.702 92.0496 214.607 96.8554 215.11C96.8353 215.613 96.795 216.135 96.8151 216.638C97.0162 226.692 104.979 234.132 114.59 233.267C124.202 232.403 131.843 223.575 131.642 213.521C131.622 212.999 131.582 212.476 131.541 211.973C136.367 210.606 141.113 208.836 145.717 206.705C145.939 207.147 146.16 207.59 146.421 208.032C151.408 216.296 162.125 218.327 170.349 212.576C178.574 206.805 181.208 195.424 176.221 187.16C175.96 186.738 175.678 186.336 175.396 185.954C179.036 182.314 182.454 178.353 185.611 174.11C186.013 174.371 186.436 174.633 186.878 174.854ZM81.7745 176.181C51.1704 160.638 39.9905 121.166 56.8207 88.0285C73.6509 54.8909 112.097 40.6143 142.721 56.1576C173.325 71.701 184.505 111.173 167.675 144.31C150.845 177.448 112.379 191.725 81.7745 176.181Z" fill="url(#paint0_linear_896_594)"/>
<path d="M207.328 125.912C216.939 125.047 224.58 116.22 224.379 106.166C224.178 96.1119 216.215 88.672 206.604 89.5367C206.101 89.5769 205.598 89.6573 205.116 89.7578C204.11 84.7711 202.743 79.9251 200.994 75.1998C201.436 74.9384 201.879 74.677 202.301 74.3754C210.525 68.6044 220.72 54.6898 214.908 46.9684C203.889 32.3299 192.488 38.6639 184.264 44.4348C183.842 44.7364 183.44 45.0582 183.058 45.3799C179.8 41.7806 176.241 38.4628 172.38 35.4265C172.642 34.9841 172.923 34.5217 173.165 34.0592C175.678 29.0926 175.919 23.6232 174.25 18.9582C166.308 32.9533 158.466 46.9885 150.764 61.1243C175.175 79.0203 182.957 114.289 167.695 144.351C154.766 169.827 129.048 184.124 103.953 182.334C102.827 185.23 101.742 188.165 100.535 191.041C97.2776 198.843 93.5778 206.484 89.8779 214.125C92.2104 214.567 94.5429 214.909 96.8956 215.15C96.8755 215.653 96.8353 216.176 96.8554 216.678C97.0564 226.732 103.149 235.258 120.583 234.333C130.234 233.83 131.883 223.616 131.682 213.582C131.662 213.059 131.622 212.536 131.582 212.033C136.407 210.666 141.153 208.897 145.758 206.765C145.979 207.208 146.2 207.65 146.461 208.092C151.448 216.357 168.741 219.875 176.965 214.105C185.189 208.334 181.248 195.485 176.261 187.2C176 186.778 175.718 186.376 175.437 185.994C179.076 182.354 182.495 178.393 185.652 174.15C186.054 174.412 186.476 174.653 186.918 174.874C195.343 179.157 205.94 175.216 210.585 166.087C215.21 156.958 212.134 146.08 203.708 141.817C203.266 141.596 202.824 141.415 202.381 141.234C203.95 136.187 205.136 131.1 205.92 125.992C206.342 125.972 206.825 125.952 207.328 125.912Z" fill="url(#paint1_linear_896_594)"/>
<path d="M195.947 175.88C204.372 180.163 214.969 176.221 219.614 167.092C224.238 157.964 221.162 147.085 212.737 142.822C212.294 142.601 211.852 142.42 211.41 142.239C212.978 137.192 214.164 132.105 214.949 126.997C215.431 126.997 215.914 126.997 216.416 126.937C226.028 126.073 233.669 117.245 233.468 107.191C233.267 97.1374 225.304 89.6975 215.693 90.5621C215.19 90.6023 214.687 90.6828 214.205 90.7833C213.199 85.7966 211.832 80.9506 210.082 76.2253C210.525 75.9639 210.967 75.7025 211.389 75.4008C219.614 69.6299 222.248 58.2489 217.261 49.9846C212.274 41.7202 201.557 39.6894 193.333 45.4402C192.91 45.7418 192.508 46.0635 192.126 46.3853C188.869 42.7859 185.31 39.4682 181.449 36.4319C181.71 35.9895 181.992 35.527 182.233 35.0646C186.858 25.9356 183.781 15.0573 175.356 10.7944C166.931 6.51145 156.334 10.4526 151.709 19.5815C151.468 20.0641 151.267 20.5266 151.066 21.0092C146.341 19.6821 141.555 18.7772 136.729 18.2745C136.749 17.7718 136.789 17.249 136.769 16.7463C136.568 6.69243 128.606 -0.747466 118.994 0.11717C109.383 0.981806 101.742 9.80914 101.943 19.863C101.963 20.3859 102.003 20.9087 102.043 21.4114C97.2173 22.7787 92.4718 24.5482 87.8671 26.6796C87.646 26.2372 87.4248 25.7949 87.1634 25.3525C82.1766 17.0882 71.4592 15.0573 63.2351 20.8081C55.011 26.5791 52.3768 37.9601 57.3636 46.2244C57.625 46.6467 57.9065 47.0488 58.188 47.4309C54.5485 51.0704 51.1302 55.0316 47.9732 59.2744C47.5711 59.013 47.1488 58.7717 46.7064 58.5505C38.2813 54.2675 27.6844 58.2086 23.0597 67.3376C18.4349 76.4665 21.5113 87.3449 29.9365 91.6077C30.3789 91.8289 30.8213 92.0099 31.2636 92.1909C29.6952 97.2379 28.5089 102.325 27.7247 107.433C27.2421 107.433 26.7595 107.433 26.2568 107.493C16.6452 108.358 9.00428 117.185 9.20536 127.239C9.40643 137.293 17.3691 144.733 26.9807 143.868C27.4834 143.828 27.9861 143.747 28.4686 143.647C29.474 148.634 30.8414 153.479 32.5907 158.205C32.1484 158.466 31.706 158.728 31.2837 159.029C23.0596 164.8 20.4255 176.181 25.4123 184.446C30.399 192.71 41.1165 194.741 49.3406 188.99C49.7628 188.688 50.165 188.367 50.547 188.045C53.8045 191.644 57.3636 194.962 61.2243 197.998C60.9629 198.441 60.6814 198.903 60.4401 199.366C55.8153 208.494 58.8918 219.373 67.317 223.636C75.7421 227.919 86.339 223.977 90.9638 214.849C91.205 214.366 91.4061 213.903 91.6072 213.421C96.3326 214.748 101.138 215.653 105.944 216.156C105.924 216.658 105.884 217.181 105.904 217.684C106.105 227.738 114.068 235.178 123.679 234.313C133.291 233.448 140.932 224.621 140.731 214.567C140.71 214.044 140.67 213.521 140.63 213.019C145.456 211.651 150.201 209.882 154.806 207.75C155.027 208.193 155.248 208.635 155.51 209.078C160.497 217.342 171.214 219.373 179.438 213.622C187.662 207.851 190.296 196.47 185.31 188.206C185.048 187.783 184.767 187.381 184.485 186.999C188.125 183.36 191.543 179.398 194.7 175.156C195.082 175.397 195.504 175.658 195.947 175.88ZM90.8431 177.207C60.239 161.663 49.0591 122.192 65.8893 89.054C82.7196 55.9164 121.166 41.6398 151.79 57.1831C182.394 72.7265 193.574 112.198 176.744 145.336C159.913 178.473 121.447 192.75 90.8431 177.207Z" fill="url(#paint2_linear_896_594)"/>
<defs>
<linearGradient id="paint0_linear_896_594" x1="0.111464" y1="116.68" x2="224.379" y2="116.68" gradientUnits="userSpaceOnUse">
<stop stop-color="#2B7B81"/>
<stop offset="1" stop-color="#379399"/>
</linearGradient>
<linearGradient id="paint1_linear_896_594" x1="89.8453" y1="126.648" x2="224.379" y2="126.648" gradientUnits="userSpaceOnUse">
<stop stop-color="#31ABA4"/>
<stop offset="1" stop-color="#2D5E79"/>
</linearGradient>
<linearGradient id="paint2_linear_896_594" x1="185.857" y1="2.62149" x2="-95.4887" y2="502.065" gradientUnits="userSpaceOnUse">
<stop stop-color="#85F8FF"/>
<stop offset="1" stop-color="#002839"/>
</linearGradient>
</defs>
</svg>
