<svg width="616" height="279" viewBox="0 0 616 279" fill="none" xmlns="http://www.w3.org/2000/svg">
<path d="M520 61C465 51 347.8 59.4 319 173C283 315 9 292 -1 223" stroke="white" stroke-width="2" stroke-dasharray="7 7"/>
<path d="M524.706 71.8078L497.273 58.4406L530.218 59.4848L524.706 71.8078Z" fill="#672A76"/>
<path d="M527.06 61.4033L615.782 100.072L511.541 101.557L527.06 61.4033Z" fill="#BF61D7"/>
<path opacity="0.1" d="M526.663 43.7338L497.011 58.513L527.06 61.4033L615.782 100.072L526.663 43.7338Z" fill="black"/>
<path d="M526.663 43.7338L516.016 0L615.782 100.072L526.663 43.7338Z" fill="#BF61D7"/>
<path d="M526.663 43.7338L497.011 58.513L527.06 61.4033L615.782 100.072L526.663 43.7338Z" fill="#A051B4"/>
</svg>
