<svg width="641" height="303" viewBox="0 0 641 303" fill="none" xmlns="http://www.w3.org/2000/svg">
<path d="M113 59.9999C180.333 64.6665 333 104.8 405 228C495 382 765 272 731 93.9999" stroke="white" stroke-width="2" stroke-dasharray="7 7"/>
<path d="M114.049 58.904L110.457 58.4825L110.601 57.1347L114.211 57.5515L114.049 58.904Z" fill="#1A2E35"/>
<path d="M112.327 35.9294L132.351 64.5113L103.078 52.0988L1.50397 43.3293L112.327 35.9294Z" fill="#2F9898"/>
<path d="M101.949 60.3131L132.351 64.5114L103.078 52.0989L101.949 60.3131Z" fill="#396372"/>
<path d="M103.078 52.0988L1.50397 43.3293L97.3014 97.0768L103.078 52.0988Z" fill="#55EDFD"/>
<path d="M112.327 35.9294L144.159 0.784379L1.50397 43.3294L112.327 35.9294Z" fill="#55EDFD"/>
</svg>
