<svg width="20" height="20" viewBox="0 0 20 20" fill="none" xmlns="http://www.w3.org/2000/svg">
<path d="M0.456258 0.456258C1.0646 -0.152086 2.05061 -0.152086 2.65863 0.456258L10 7.79763L17.3414 0.456258C17.9497 -0.152086 18.9357 -0.152086 19.5437 0.456258C20.1521 1.0646 20.1521 2.0506 19.5437 2.65862L12.2024 10L19.5437 17.3414C20.1521 17.9497 20.1521 18.9357 19.5437 19.5437C18.9354 20.1521 17.9494 20.1517 17.3414 19.5437L10 12.2024L2.65863 19.5437C2.05028 20.1517 1.06428 20.1517 0.456258 19.5437C-0.152086 18.9354 -0.152086 17.9494 0.456258 17.3414L7.79763 10L0.456258 2.65862C-0.152086 2.05028 -0.152086 1.06428 0.456258 0.456258Z" fill="white"/>
</svg>
