<svg width="575" height="750" viewBox="0 0 575 750" fill="none" xmlns="http://www.w3.org/2000/svg">
<path fill-rule="evenodd" clip-rule="evenodd" d="M-51.526 2.65226C69.9331 -18.7187 138.266 156.336 256.953 189.701C314.601 205.906 376.681 99.5606 423.944 136.314C473.545 174.884 399.396 262.785 424.826 320.243C451.641 380.832 548.178 390.314 564.754 454.47C583.684 527.737 577.275 626.917 515.299 670.413C452.278 714.643 367.265 633.637 291.344 646.355C201.628 661.384 136.499 754.44 45.7036 749.078C-76.6719 741.852 -230.603 721.648 -285.868 612.269C-340.424 504.294 -240.035 382.481 -196.606 269.505C-159.369 172.636 -153.734 20.6359 -51.526 2.65226Z" fill="url(#paint0_radial_1110_783)"/>
<defs>
<radialGradient id="paint0_radial_1110_783" cx="0" cy="0" r="1" gradientUnits="userSpaceOnUse" gradientTransform="translate(-522.477 644.692) rotate(-13.8537) scale(1174.7 1127.71)">
<stop stop-color="#55EDFD"/>
<stop offset="1" stop-color="#091235" stop-opacity="0"/>
</radialGradient>
</defs>
</svg>
