<svg viewBox="0 0 678 590" fill="none" xmlns="http://www.w3.org/2000/svg">
<path fill-rule="evenodd" clip-rule="evenodd" d="M340.263 0.702919C411.852 -3.97097 483.254 14.823 543.046 52.3217C604.689 90.9813 673.8 142.619 677.866 212.431C681.911 281.896 593.463 321.245 562.379 384.308C537.172 435.449 560.847 507.241 514.837 543.187C468.68 579.248 399.808 551.808 340.263 557.839C270.414 564.914 200.684 607.894 136.207 581.537C68.1111 553.702 17.0367 488.573 2.56926 419.8C-11.3406 353.677 34.4609 292.804 62.4206 230.782C87.5526 175.033 108.638 117.47 156.864 77.5349C208.42 34.8414 271.879 5.16763 340.263 0.702919Z" fill="url(#paint0_linear_1110_899)"/>
<defs>
<linearGradient id="paint0_linear_1110_899" x1="339" y1="0" x2="339" y2="590" gradientUnits="userSpaceOnUse">
<stop stop-color="#B240CF" stop-opacity="0.51"/>
<stop offset="1" stop-color="#8C4EC2" stop-opacity="0.27"/>
</linearGradient>
</defs>
</svg>
