<svg width="100" height="86" viewBox="0 0 100 86" fill="none" xmlns="http://www.w3.org/2000/svg">
<path d="M45.4727 76.1566H72.974C73.7831 81.3 78.1998 85.2632 83.5508 85.2632C89.4731 85.2632 94.2944 80.4253 94.2944 74.4826C94.2944 68.54 89.4731 63.7021 83.5508 63.7021C78.1998 63.7021 73.7831 67.6611 72.974 72.8086H45.4727C44.6636 67.6653 40.2468 63.7021 34.8959 63.7021C34.5956 63.7021 34.3162 63.7649 34.0242 63.79L32.7939 57.7594H87.0624C92.1757 57.7594 95.3704 56.8011 97.4224 54.6625C100.033 51.959 100.117 48.3641 99.9456 43.1287L98.269 18.295C98.1564 16.6963 96.9135 15.4241 95.2995 15.2776L22.4923 9.49816C20.5822 2.68919 15.8944 -0.629507 9.36312 0.0986806C4.11227 0.659469 0 5.10393 0 10.218C0 11.1429 0.750718 11.892 1.66826 11.892C2.58581 11.892 3.33652 11.1429 3.33652 10.218C3.33652 6.79048 6.13504 3.80658 9.7218 3.42156C14.7182 2.87333 18.0006 5.35084 19.3894 10.8248L27.7766 49.854L30.7711 64.5307C26.8882 66.1587 24.1523 70.0047 24.1523 74.4785C24.1523 80.4211 28.9736 85.259 34.8959 85.259C40.251 85.2632 44.6636 81.3042 45.4727 76.1566ZM23.2556 12.9131L94.945 18.5294L96.6174 43.2961C96.7592 47.7448 96.7259 50.5738 95.0242 52.3357C93.6479 53.7711 91.1914 54.4073 87.0624 54.4073H32.1141L23.2556 12.9131ZM83.5508 67.0543C87.6338 67.0543 90.9537 70.3855 90.9537 74.4826C90.9537 78.5797 87.6338 81.911 83.5508 81.911C79.4677 81.911 76.1478 78.5797 76.1478 74.4826C76.1478 70.3855 79.4635 67.0543 83.5508 67.0543ZM27.493 74.4826C27.493 70.3855 30.8128 67.0543 34.8959 67.0543C38.979 67.0543 42.2988 70.3855 42.2988 74.4826C42.2988 78.5797 38.979 81.911 34.8959 81.911C30.8128 81.911 27.493 78.5797 27.493 74.4826Z" fill="#BF61D7"/>
<path d="M39.3027 29.1311L82.248 31.1482C82.273 31.1482 82.3022 31.1482 82.3272 31.1482C83.2156 31.1482 83.9538 30.4494 83.9913 29.5538C84.0372 28.6289 83.324 27.8463 82.4023 27.8044L39.4612 25.7873C38.6062 25.7747 37.7596 26.4611 37.7179 27.3818C37.672 28.3066 38.3852 29.0892 39.3027 29.1311Z" fill="#BF61D7"/>
<path d="M76.4351 40.4345L44.2252 38.9196C43.3243 38.974 42.5235 39.5892 42.4818 40.514C42.436 41.4389 43.1491 42.2215 44.0709 42.2634L76.2808 43.7783C76.3059 43.7783 76.3351 43.7825 76.3601 43.7825C77.2484 43.7825 77.9866 43.0836 78.0242 42.1838C78.0659 41.259 77.3527 40.4764 76.4351 40.4345Z" fill="#BF61D7"/>
</svg>
