<svg width="50" height="50" viewBox="0 0 50 50" fill="none" xmlns="http://www.w3.org/2000/svg">
<g clip-path="url(#clip0_905_618)">
<path d="M25 0C20.0555 0 15.222 1.46622 11.1108 4.21326C6.99953 6.9603 3.79521 10.8648 1.90302 15.4329C0.0108321 20.0011 -0.484251 25.0277 0.480379 29.8773C1.44501 34.7268 3.82603 39.1814 7.32234 42.6777C10.8187 46.174 15.2732 48.555 20.1228 49.5196C24.9723 50.4843 29.9989 49.9892 34.5671 48.097C39.1353 46.2048 43.0397 43.0005 45.7868 38.8893C48.5338 34.778 50 29.9445 50 25C50 18.3696 47.3661 12.0107 42.6777 7.32233C37.9893 2.63392 31.6304 0 25 0V0ZM36.4268 29.4756C36.622 29.7073 37.0854 30.1707 37.8171 30.8537C39.0841 31.9057 40.1894 33.1384 41.0976 34.5122L41.2073 34.7195C41.2584 34.8628 41.2992 35.0095 41.3293 35.1585C41.3729 35.343 41.3729 35.5351 41.3293 35.7195C41.2513 35.9228 41.0986 36.0885 40.9025 36.1829C40.5892 36.34 40.24 36.4116 39.8903 36.3902L35.5 36.4634C35.1766 36.5109 34.8466 36.4816 34.5366 36.378C34.2268 36.2908 33.928 36.168 33.6464 36.0122L33.3049 35.8049C32.8623 35.495 32.4535 35.1394 32.0854 34.7439C31.622 34.2561 31.2317 33.8293 30.8659 33.4512C30.5637 33.0829 30.2153 32.755 29.8293 32.4756C29.697 32.3614 29.5403 32.2789 29.3712 32.2345C29.2021 32.1901 29.0251 32.185 28.8537 32.2195H28.7195C28.6098 32.285 28.511 32.3673 28.4268 32.4634C28.283 32.6084 28.1599 32.7726 28.061 32.9512C27.9245 33.2252 27.826 33.5165 27.7683 33.8171C27.6797 34.242 27.6428 34.676 27.6585 35.1098C27.6787 35.2636 27.6787 35.4194 27.6585 35.5732C27.628 35.6805 27.5829 35.783 27.5244 35.878V35.9634C27.2721 36.1892 26.9482 36.3187 26.6098 36.3293H24.6464C23.8041 36.3706 22.9606 36.28 22.1464 36.061C21.369 35.9214 20.6114 35.688 19.8903 35.3659C19.248 35 18.6626 34.6341 18.1342 34.2683C17.7054 33.9764 17.2979 33.6544 16.9146 33.3049L16.4878 32.9268L16.0244 32.4268C15.8171 32.2073 15.4146 31.6951 14.8049 30.9146C14.1951 30.1341 13.5854 29.2805 12.9878 28.3902C12.3903 27.5 11.6951 26.3293 10.8903 24.8659C10.0854 23.4024 9.32928 21.8293 8.63416 20.2683C8.57874 20.1238 8.54583 19.9716 8.5366 19.8171C8.50486 19.7179 8.50486 19.6113 8.5366 19.5122H8.65855C8.78837 19.3917 8.94291 19.3008 9.11139 19.2461C9.27988 19.1913 9.45827 19.1739 9.63416 19.1951H14.3293C14.4627 19.2188 14.5934 19.2556 14.7195 19.3049C14.8173 19.3399 14.9113 19.3849 15 19.439H15.0854C15.2737 19.5676 15.4183 19.7505 15.5 19.9634C15.7195 20.5244 15.9878 21.0976 16.2805 21.6951C16.5732 22.2927 16.8171 22.7439 16.9878 23.061L17.2683 23.5366C17.5976 24.2073 17.9146 24.7561 18.2195 25.2805C18.4667 25.6791 18.7439 26.0582 19.0488 26.4146C19.2628 26.6572 19.5043 26.8741 19.7683 27.061C19.9355 27.1957 20.1396 27.2764 20.3537 27.2927C20.5122 27.2946 20.6696 27.2656 20.8171 27.2073L20.9025 27.1341C20.9025 27.1341 21 26.9634 21.0976 26.7561C21.221 26.5119 21.2995 26.2476 21.3293 25.9756C21.3293 25.6585 21.439 25.2073 21.5 24.622C21.5492 23.9277 21.5492 23.2308 21.5 22.5366C21.4819 22.1263 21.4289 21.7183 21.3415 21.3171C21.2991 21.0502 21.2169 20.7912 21.0976 20.5488L21 20.3537C20.817 20.1325 20.5905 19.9513 20.3345 19.8213C20.0786 19.6912 19.7987 19.6151 19.5122 19.5976C19.3537 19.5976 19.3903 19.439 19.5976 19.1951C19.779 18.9886 19.9984 18.8189 20.2439 18.6951C21.5896 18.3078 22.9952 18.1714 24.3903 18.2927C25.168 18.289 25.9441 18.3626 26.7073 18.5122C26.9058 18.5643 27.098 18.6379 27.2805 18.7317C27.4316 18.8325 27.5536 18.9713 27.6342 19.1341C27.7093 19.3067 27.7665 19.4865 27.8049 19.6707C27.8553 19.9194 27.8758 20.1733 27.8659 20.4268C27.8659 20.7561 27.8659 21.061 27.8659 21.3537C27.8659 21.6463 27.8659 22.0366 27.8659 22.5732C27.8659 23.1098 27.8659 23.5244 27.8659 23.9512C27.8659 24.0732 27.8659 24.3049 27.8659 24.6585C27.8659 25.0122 27.8659 25.2683 27.8659 25.4512C27.8659 25.6341 27.8659 25.8659 27.8659 26.1341C27.8905 26.3598 27.9567 26.5789 28.061 26.7805C28.1565 26.9476 28.2903 27.0896 28.4512 27.1951H28.7439C28.8415 27.1951 28.9878 27.1341 29.1829 27.0122C29.4159 26.8371 29.6359 26.6456 29.8415 26.439C30.1663 26.0882 30.4639 25.7131 30.7317 25.3171C31.0854 24.8171 31.4756 24.2195 31.8903 23.5244C32.6032 22.3234 33.219 21.0674 33.7317 19.7683C33.7747 19.6633 33.8322 19.5648 33.9025 19.4756C33.9532 19.4086 34.0151 19.3509 34.0854 19.3049H34.1586H34.2439H34.4634C34.5753 19.2749 34.6931 19.2749 34.8049 19.3049H39.6829C40.0448 19.2282 40.4187 19.2282 40.7805 19.3049C40.9849 19.3383 41.173 19.4366 41.3171 19.5854L41.4146 19.7439C41.6829 20.4634 40.8171 22.0976 38.8415 24.622L37.7317 26.0366C37.144 26.7108 36.6251 27.4421 36.1829 28.2195C36.1099 28.4319 36.0939 28.6597 36.1367 28.8802C36.1796 29.1007 36.2796 29.306 36.4268 29.4756Z" fill="white"/>
</g>
<defs>
<clipPath id="clip0_905_618">
<rect width="50" height="50" fill="white"/>
</clipPath>
</defs>
</svg>
