<svg width="1560" height="854" viewBox="0 0 1560 854" fill="none" xmlns="http://www.w3.org/2000/svg">
<path d="M57 110.29C704.746 -63.1114 999.176 246.534 1673 110.29V809.205C1037.87 952.527 704.746 695.963 57 809.205V110.29Z" fill="url(#paint0_radial_1601_901)"/>
<path fill-rule="evenodd" clip-rule="evenodd" d="M158.906 333.669C125.223 335.871 91.6284 327.016 63.4962 309.347C34.4931 291.131 1.9761 266.8 0.0632081 233.905C-1.84016 201.174 39.7747 182.634 54.3997 152.919C66.2597 128.822 55.1207 94.9947 76.7685 78.0575C98.4853 61.0663 130.89 73.9957 158.906 71.1539C191.77 67.8204 224.578 47.5688 254.914 59.9874C286.954 73.1033 310.984 103.791 317.791 136.196C324.336 167.352 302.786 196.035 289.631 225.259C277.806 251.527 267.886 278.65 245.195 297.467C220.938 317.583 191.081 331.565 158.906 333.669Z" fill="url(#paint1_linear_1601_901)"/>
<path fill-rule="evenodd" clip-rule="evenodd" d="M1171.89 65.0379C1080.75 90.0524 1090.8 233.72 1019.52 295.742C984.897 325.868 907.028 272.551 886.337 313.506C864.622 356.485 944.804 393.068 946.025 441.208C947.312 491.971 883.547 530.187 893.097 580.064C904.003 637.024 940.958 703.628 998.15 713.441C1056.31 723.42 1088.64 639.435 1145.4 623.355C1212.48 604.354 1288.1 647.464 1349.24 613.984C1431.65 568.859 1531.65 504.399 1534.08 410.511C1536.47 317.828 1427 266.356 1359.87 202.332C1302.32 147.436 1248.59 43.9882 1171.89 65.0379Z" fill="url(#paint2_radial_1601_901)"/>
<defs>
<radialGradient id="paint0_radial_1601_901" cx="0" cy="0" r="1" gradientUnits="userSpaceOnUse" gradientTransform="translate(865 455) rotate(90) scale(399 808)">
<stop stop-color="#171A6F" stop-opacity="0.69"/>
<stop offset="0.28125" stop-color="#0F114F" stop-opacity="0.69"/>
<stop offset="1" stop-opacity="0"/>
</radialGradient>
<linearGradient id="paint1_linear_1601_901" x1="159.5" y1="334" x2="159.5" y2="56" gradientUnits="userSpaceOnUse">
<stop stop-color="#B240CF" stop-opacity="0.51"/>
<stop offset="1" stop-color="#8C4EC2" stop-opacity="0.27"/>
</linearGradient>
<radialGradient id="paint2_radial_1601_901" cx="0" cy="0" r="1" gradientUnits="userSpaceOnUse" gradientTransform="translate(1708.61 355.402) rotate(168.528) scale(900.274 864.266)">
<stop stop-color="#55EDFD"/>
<stop offset="1" stop-color="#091235" stop-opacity="0"/>
</radialGradient>
</defs>
</svg>
