<svg width="165" height="166" viewBox="0 0 165 166" fill="none" xmlns="http://www.w3.org/2000/svg">
<path d="M131.469 123.998C137.401 127.014 144.861 124.239 148.119 117.825C151.376 111.39 149.225 103.749 143.273 100.733C142.971 100.572 142.649 100.452 142.328 100.311C143.433 96.7519 144.258 93.1727 144.821 89.5935C145.163 89.5935 145.505 89.5935 145.846 89.5533C152.623 88.95 157.992 82.7367 157.851 75.6588C157.71 68.5808 152.1 63.3528 145.344 63.956C144.982 63.9962 144.64 64.0365 144.298 64.0968C143.594 60.598 142.629 57.1596 141.403 53.8619C141.704 53.6809 142.026 53.5 142.328 53.2788C148.119 49.217 149.969 41.2141 146.47 35.3828C142.971 29.5516 135.431 28.1239 129.639 32.1857C129.338 32.3867 129.056 32.628 128.795 32.8492C126.503 30.3156 123.989 27.9831 121.275 25.8316C121.456 25.5099 121.657 25.2083 121.818 24.8664C125.075 18.4319 129.338 11.4143 123.366 8.49867C109.532 1.74244 103.6 7.53349 100.322 13.9479C100.161 14.2897 100.001 14.6114 99.8598 14.9533C96.5219 14.0283 93.164 13.3849 89.7657 13.0229C89.7858 12.661 89.8059 12.299 89.8059 11.9371C89.6652 4.85915 91.7564 1.03867 84.9599 0.897914C70.1405 0.616405 65.1337 7.0509 65.2744 14.1087C65.2744 14.4707 65.3146 14.8326 65.3548 15.1946C61.9566 16.1597 58.6187 17.4064 55.3814 18.8944C55.2205 18.5727 55.0596 18.2711 54.8787 17.9694C51.3799 12.1382 43.8394 10.7105 38.0484 14.7723C32.2573 18.8341 30.4074 26.837 33.9062 32.6683C34.0872 32.9699 34.2882 33.2514 34.4893 33.5128C31.9155 36.0866 29.5227 38.8615 27.3108 41.8575C27.0293 41.6766 26.7277 41.4956 26.4261 41.3548C20.4943 38.3387 13.0343 41.1135 9.77682 47.5279C6.51936 53.9624 8.67089 61.6034 14.6228 64.6196C14.9244 64.7804 15.2461 64.9011 15.5679 65.0418C14.4619 68.6009 13.6375 72.1801 13.0745 75.7593C12.7327 75.7593 12.3908 75.7593 12.049 75.7995C5.27266 76.4028 -0.096118 82.6161 0.0446367 89.694C0.185391 96.772 5.79546 102 12.5517 101.397C12.9136 101.357 13.2555 101.316 13.5973 101.256C14.3011 104.755 15.2662 108.193 16.4928 111.491C16.1912 111.672 15.8695 111.853 15.5679 112.074C9.77681 116.136 7.9269 124.139 11.4257 129.97C14.9244 135.801 26.5467 138.496 32.3378 134.434C32.6394 134.233 28.839 132.725 29.1205 132.504C31.4128 135.037 33.9263 137.37 36.6408 139.521C36.4599 139.843 36.2588 140.145 36.0979 140.486C32.8405 146.921 34.992 154.562 40.9439 157.578C46.8959 160.594 54.3358 157.819 57.5932 151.405C57.7541 151.063 57.9149 150.741 58.0557 150.4C61.3936 151.324 64.7516 151.968 68.1498 152.33C68.1297 152.692 68.1096 153.054 68.1096 153.416C68.2503 160.494 73.8605 165.722 80.6167 165.118C87.393 164.515 92.7618 158.302 92.621 151.224C92.621 150.862 92.5808 150.5 92.5406 150.138C95.9388 149.173 99.2767 147.926 102.514 146.438C102.675 146.76 102.836 147.062 103.017 147.363C106.516 153.195 114.056 154.622 119.847 150.56C125.638 146.499 127.488 138.496 123.989 132.664C123.808 132.363 123.607 132.081 123.406 131.82C125.98 129.246 128.373 126.471 130.585 123.475C130.866 123.656 131.168 123.837 131.469 123.998ZM57.4927 124.923C35.9371 113.984 28.0749 86.1953 39.9184 62.8702C51.7619 39.5451 78.827 29.4912 100.383 40.4299C121.938 51.3685 129.8 79.1575 117.957 102.483C106.113 125.828 79.0282 135.862 57.4927 124.923Z" fill="url(#paint0_linear_896_564)"/>
<path d="M145.867 89.5533C152.643 88.95 158.012 82.7367 157.871 75.6587C157.73 68.5808 152.12 63.3528 145.364 63.956C145.002 63.9962 144.66 64.0364 144.318 64.0968C143.614 60.598 142.649 57.1596 141.423 53.8619C141.724 53.6809 142.046 53.4999 142.348 53.2788C148.139 49.217 155.297 39.4245 151.215 33.9753C143.454 23.6599 135.43 28.1239 129.639 32.1857C129.338 32.3867 129.056 32.628 128.795 32.8492C126.503 30.3156 123.989 27.9831 121.275 25.8316C121.456 25.5099 121.657 25.2082 121.818 24.8664C123.587 21.3676 123.748 17.5069 122.582 14.2294C116.992 24.0822 111.462 33.9551 106.053 43.9085C123.245 56.496 128.714 81.3292 117.977 102.483C108.868 120.419 90.771 130.493 73.0962 129.226C72.312 131.277 71.5278 133.328 70.6833 135.359C68.391 140.848 65.7971 146.237 63.1831 151.606C64.8118 151.908 66.4607 152.149 68.1095 152.33C68.0894 152.692 68.0693 153.054 68.0693 153.416C68.21 160.494 72.5131 166.486 84.7789 165.842C91.5754 165.48 92.7416 158.302 92.6008 151.224C92.6008 150.862 92.5606 150.5 92.5204 150.138C95.9186 149.173 99.2565 147.926 102.494 146.438C102.655 146.76 102.816 147.062 102.997 147.363C106.495 153.195 118.681 155.668 124.472 151.606C130.263 147.544 127.488 138.496 123.969 132.664C123.788 132.363 123.587 132.081 123.386 131.82C125.96 129.246 128.353 126.471 130.564 123.475C130.846 123.656 131.148 123.837 131.449 123.978C137.381 126.994 144.841 124.219 148.098 117.805C151.356 111.37 149.204 103.729 143.252 100.713C142.951 100.552 142.629 100.432 142.307 100.291C143.413 96.7317 144.238 93.1526 144.801 89.5734C145.183 89.5935 145.525 89.5734 145.867 89.5533Z" fill="url(#paint1_linear_896_564)"/>
<path d="M137.843 124.722C143.775 127.738 151.235 124.963 154.493 118.549C157.75 112.114 155.599 104.473 149.647 101.457C149.345 101.296 149.023 101.176 148.702 101.035C149.808 97.4757 150.632 93.8965 151.195 90.3173C151.537 90.3173 151.879 90.3173 152.221 90.2771C158.997 89.6739 164.366 83.4606 164.225 76.3826C164.084 69.3047 158.474 64.0766 151.718 64.6799C151.356 64.7201 151.014 64.7603 150.672 64.8206C149.969 61.3219 149.003 57.8834 147.777 54.5858C148.078 54.4048 148.4 54.2238 148.702 54.0026C154.493 49.9408 156.343 41.9379 152.844 36.1067C149.345 30.2754 141.805 28.8477 136.014 32.9095C135.712 33.1106 135.431 33.3519 135.169 33.5731C132.877 31.0395 130.363 28.707 127.649 26.5554C127.83 26.2337 128.031 25.9321 128.192 25.5903C131.449 19.1558 129.298 11.5148 123.346 8.49863C117.414 5.48246 109.954 8.25734 106.697 14.6717C106.536 15.0136 106.375 15.3353 106.234 15.6771C102.896 14.7522 99.5381 14.1087 96.1399 13.7468C96.16 13.3848 96.1801 13.0229 96.1801 12.6609C96.0394 5.583 90.4293 0.354962 83.6731 0.958196C76.8967 1.56143 71.5279 7.77474 71.6687 14.8527C71.6687 15.2146 71.7089 15.5766 71.7491 15.9385C68.3509 16.9037 65.013 18.1504 61.7756 19.6384C61.6148 19.3166 61.4539 19.015 61.2729 18.7134C57.7742 12.8821 50.2337 11.4545 44.4427 15.5162C38.6516 19.578 36.8018 27.5809 40.3005 33.4122C40.4815 33.7138 40.6825 33.9953 40.8836 34.2567C38.3098 36.8305 35.917 39.6054 33.7051 42.6015C33.4236 42.4205 33.122 42.2395 32.8204 42.0988C26.8886 39.0826 19.4286 41.8575 16.1711 48.2719C12.9136 54.7064 15.0652 62.3474 21.0171 65.3635C21.3187 65.5244 21.6404 65.645 21.9622 65.7858C20.8562 69.3449 20.0318 72.9241 19.4688 76.5033C19.127 76.5033 18.7851 76.5033 18.4433 76.5435C11.667 77.1467 6.29817 83.36 6.43892 90.438C6.57968 97.5159 12.1898 102.744 18.946 102.141C19.3079 102.101 19.6498 102.06 19.9916 102C20.6954 105.499 21.6605 108.937 22.8871 112.235C22.5855 112.416 22.2638 112.597 21.9622 112.818C16.1711 116.88 14.3212 124.883 17.82 130.714C21.3187 136.545 28.8591 137.973 34.6502 133.911C34.9518 133.71 35.2333 133.469 35.4947 133.248C37.787 135.781 40.3005 138.114 43.0151 140.265C42.8341 140.587 42.633 140.889 42.4721 141.23C39.2146 147.665 41.3662 155.306 47.3181 158.322C53.2499 161.338 60.7099 158.563 63.9674 152.149C64.1283 151.807 64.2891 151.485 64.4299 151.143C67.7678 152.068 71.1258 152.712 74.524 153.074C74.5039 153.436 74.4838 153.798 74.4838 154.16C74.6245 161.238 80.2346 166.466 86.9908 165.862C93.7672 165.259 99.136 159.046 98.9952 151.968C98.9952 151.606 98.955 151.244 98.9148 150.882C102.313 149.917 105.651 148.67 108.888 147.182C109.049 147.504 109.21 147.806 109.391 148.107C112.89 153.938 120.43 155.366 126.221 151.304C132.012 147.243 133.862 139.24 130.363 133.408C130.182 133.107 129.981 132.825 129.78 132.564C132.354 129.99 134.747 127.215 136.959 124.219C137.24 124.38 137.542 124.561 137.843 124.722ZM63.8669 125.667C42.3113 114.728 34.4491 86.9392 46.2926 63.6142C58.1361 40.2891 85.2013 30.2352 106.757 41.1738C128.312 52.1125 136.175 79.9015 124.331 103.227C112.488 126.552 85.4224 136.606 63.8669 125.667Z" fill="white"/>
<defs>
<linearGradient id="paint0_linear_896_564" x1="137.748" y1="142.61" x2="169.804" y2="176.09" gradientUnits="userSpaceOnUse">
<stop stop-color="#444B8C"/>
<stop offset="0.9964" stop-color="#3E4177"/>
</linearGradient>
<linearGradient id="paint1_linear_896_564" x1="146.283" y1="134.439" x2="178.339" y2="167.92" gradientUnits="userSpaceOnUse">
<stop stop-color="#444B8C"/>
<stop offset="0.9964" stop-color="#3E4177"/>
</linearGradient>
</defs>
</svg>
