<svg width="310" height="311" viewBox="0 0 310 311" fill="none" xmlns="http://www.w3.org/2000/svg">
<path d="M247.48 231.93C258.639 237.6 272.655 232.392 278.787 220.307C284.92 208.223 280.838 193.845 269.699 188.175C269.116 187.873 268.532 187.632 267.949 187.391C270.02 180.715 271.589 173.979 272.634 167.223C273.278 167.223 273.921 167.203 274.565 167.142C287.293 166.016 297.387 154.313 297.126 141.022C296.864 127.731 286.328 117.878 273.6 119.004C272.936 119.064 272.272 119.165 271.629 119.286C270.302 112.69 268.472 106.256 266.18 100.042C266.763 99.7006 267.346 99.3387 267.909 98.9566C278.808 91.3358 282.286 76.275 275.691 65.3363C269.095 54.3977 254.919 51.7032 244.041 59.3241C243.478 59.7062 242.955 60.1284 242.433 60.5708C238.129 55.8253 233.424 51.4016 228.317 47.38C228.679 46.7969 229.021 46.1937 229.342 45.5703C235.475 33.4855 243.498 20.2948 232.238 14.8054C206.238 2.11733 195.079 12.9756 188.946 25.0604C188.624 25.6837 188.363 26.3272 188.081 26.9505C181.828 25.2011 175.474 23.9946 169.099 23.3311C169.14 22.6675 169.18 21.9838 169.16 21.3002C168.898 8.0089 172.839 0.810307 160.071 0.569013C132.222 0.0261016 122.811 12.1109 123.073 25.4022C123.093 26.106 123.153 26.7695 123.213 27.4532C116.839 29.2629 110.565 31.5954 104.453 34.4105C104.171 33.8274 103.87 33.2241 103.508 32.6611C96.9123 21.7224 82.7363 19.028 71.8579 26.6489C60.9595 34.2697 57.4809 49.3305 64.0762 60.2692C64.4181 60.8322 64.78 61.355 65.162 61.8778C60.3362 66.7037 55.832 71.9317 51.6496 77.5619C51.1067 77.2201 50.5638 76.8983 49.9806 76.5967C38.8208 70.9263 24.8057 76.1342 18.6728 88.219C12.5399 100.304 16.6017 114.681 27.7615 120.351C28.3446 120.653 28.9278 120.894 29.531 121.136C27.4599 127.811 25.8915 134.547 24.8459 141.304C24.2024 141.304 23.559 141.324 22.9155 141.364C10.1873 142.49 0.0931723 154.193 0.354574 167.484C0.615975 180.775 11.1525 190.628 23.8807 189.502C24.5443 189.442 25.2078 189.341 25.8513 189.221C27.1784 195.816 29.0082 202.251 31.3005 208.464C30.7174 208.806 30.1342 209.168 29.5712 209.55C18.6728 217.171 15.1941 232.231 21.7895 243.17C28.3849 254.109 50.2219 259.196 61.1003 251.575C61.6633 251.193 54.525 248.358 55.0478 247.936C59.3509 252.681 64.0561 257.105 69.1635 261.126C68.8016 261.709 68.4597 262.313 68.138 262.936C62.0051 275.021 66.087 289.398 77.2267 295.068C88.3866 300.739 102.402 295.531 108.535 283.446C108.856 282.823 109.118 282.179 109.399 281.556C115.653 283.305 122.007 284.512 128.381 285.175C128.341 285.839 128.301 286.522 128.321 287.206C128.582 300.497 139.119 310.35 151.847 309.224C164.575 308.098 174.669 296.395 174.408 283.104C174.388 282.4 174.327 281.737 174.267 281.053C180.661 279.243 186.915 276.911 193.028 274.096C193.309 274.679 193.611 275.282 193.973 275.845C200.568 286.784 214.744 289.478 225.622 281.857C236.521 274.237 239.999 259.176 233.404 248.217C233.062 247.654 232.7 247.131 232.318 246.608C237.144 241.783 241.648 236.554 245.831 230.924C246.354 231.306 246.896 231.628 247.48 231.93ZM108.414 233.679C67.9168 213.109 53.1376 160.889 75.3969 117.034C97.6563 73.1784 148.549 54.2971 189.046 74.8674C229.543 95.4378 244.323 147.658 222.063 191.513C199.804 235.368 148.911 254.249 108.414 233.679Z" fill="url(#paint0_linear_896_575)"/>
<path d="M274.545 167.182C287.273 166.056 297.367 154.354 297.106 141.062C296.844 127.771 286.308 117.918 273.58 119.044C272.916 119.105 272.252 119.205 271.609 119.326C270.282 112.731 268.452 106.296 266.16 100.083C266.743 99.7409 267.326 99.3789 267.889 98.9969C278.787 91.376 292.24 72.9371 284.558 62.7224C269.98 43.3384 254.879 51.7234 244.001 59.3644C243.438 59.7464 242.915 60.1687 242.392 60.611C238.089 55.8656 233.384 51.4419 228.277 47.4203C228.639 46.8372 228.98 46.234 229.302 45.6106C232.64 39.0354 232.942 31.7966 230.73 25.6235C220.213 44.1427 209.838 62.7224 199.643 81.4226C231.956 105.11 242.252 151.76 222.043 191.533C204.932 225.234 170.909 244.175 137.691 241.803C136.203 245.643 134.755 249.504 133.167 253.324C128.864 263.66 123.978 273.774 119.071 283.868C122.148 284.451 125.244 284.914 128.341 285.235C128.301 285.899 128.26 286.583 128.281 287.266C128.542 300.558 136.625 311.858 159.689 310.632C172.457 309.948 174.649 296.456 174.368 283.164C174.348 282.461 174.287 281.797 174.227 281.113C180.601 279.304 186.875 276.971 192.987 274.156C193.269 274.739 193.571 275.342 193.933 275.905C200.528 286.844 223.411 291.509 234.289 283.868C245.187 276.247 239.959 259.216 233.364 248.277C233.022 247.714 232.66 247.191 232.278 246.669C237.104 241.843 241.608 236.615 245.791 230.985C246.333 231.326 246.876 231.648 247.46 231.95C258.619 237.62 272.634 232.412 278.767 220.327C284.9 208.243 280.818 193.866 269.679 188.195C269.096 187.894 268.512 187.652 267.909 187.411C269.98 180.735 271.549 173.999 272.594 167.263C273.238 167.243 273.881 167.243 274.545 167.182Z" fill="url(#paint1_linear_896_575)"/>
<path d="M259.464 233.297C270.624 238.967 284.639 233.76 290.772 221.675C296.905 209.59 292.843 195.213 281.683 189.542C281.1 189.241 280.517 189 279.934 188.758C282.005 182.082 283.573 175.346 284.619 168.59C285.262 168.59 285.906 168.57 286.549 168.51C299.277 167.384 309.371 155.681 309.11 142.39C308.849 129.098 298.312 119.245 285.584 120.372C284.92 120.432 284.257 120.532 283.613 120.653C282.286 114.058 280.456 107.623 278.164 101.41C278.747 101.068 279.33 100.706 279.893 100.324C290.792 92.7032 294.271 77.6424 287.675 66.7038C281.08 55.7651 266.904 53.0706 256.025 60.6915C255.462 61.0736 254.94 61.4958 254.417 61.9382C250.114 57.1928 245.409 52.769 240.301 48.7474C240.663 48.1643 241.005 47.5611 241.327 46.9377C247.46 34.8529 243.398 20.4759 232.238 14.8054C221.078 9.13504 207.063 14.3429 200.93 26.4278C200.608 27.0511 200.347 27.6946 200.065 28.3179C193.812 26.5685 187.458 25.362 181.084 24.6985C181.124 24.0349 181.164 23.3513 181.144 22.6676C180.883 9.37633 170.346 -0.476508 157.618 0.64953C144.89 1.77557 134.795 13.4783 135.057 26.7696C135.077 27.4734 135.137 28.1369 135.198 28.8206C128.823 30.6504 122.55 32.9628 116.437 35.7779C116.155 35.1948 115.854 34.5915 115.492 34.0285C108.897 23.0899 94.7205 20.3954 83.8422 28.0163C72.9438 35.6371 69.4651 50.6979 76.0605 61.6366C76.4023 62.1996 76.7643 62.7224 77.1463 63.2452C72.3205 68.0711 67.8163 73.2991 63.6339 78.9293C63.091 78.5875 62.5481 78.2657 61.9649 77.9641C50.8051 72.2937 36.7899 77.5017 30.657 89.5865C24.5242 101.671 28.586 116.048 39.7458 121.719C40.3289 122.02 40.912 122.262 41.5153 122.503C39.4442 129.179 37.8758 135.915 36.8302 142.671C36.1867 142.671 35.5432 142.691 34.8998 142.731C22.1715 143.858 12.0774 155.56 12.3388 168.852C12.6002 182.143 23.1367 191.996 35.865 190.87C36.5285 190.809 37.1921 190.709 37.8355 190.588C39.1627 197.183 40.9925 203.618 43.2848 209.831C42.7016 210.173 42.1185 210.535 41.5555 210.917C30.6571 218.538 27.1784 233.599 33.7738 244.537C40.3691 255.476 54.5451 258.17 65.4235 250.55C65.9865 250.168 66.5093 249.745 67.0321 249.303C71.3352 254.048 76.0404 258.472 81.1478 262.494C80.7858 263.077 80.444 263.68 80.1223 264.303C73.9894 276.388 78.0713 290.765 89.211 296.436C100.371 302.106 114.386 296.898 120.519 284.813C120.841 284.19 121.102 283.547 121.384 282.923C127.637 284.673 133.991 285.879 140.365 286.543C140.325 287.206 140.285 287.89 140.305 288.573C140.566 301.865 151.103 311.718 163.831 310.592C176.559 309.466 186.654 297.763 186.392 284.472C186.372 283.768 186.312 283.104 186.251 282.421C192.646 280.611 198.899 278.278 205.012 275.463C205.293 276.046 205.595 276.65 205.957 277.213C212.552 288.151 226.728 290.846 237.607 283.225C248.505 275.604 251.984 260.543 245.388 249.584C245.047 249.021 244.685 248.499 244.303 247.976C249.128 243.15 253.633 237.922 257.815 232.292C258.358 232.654 258.901 232.995 259.464 233.297ZM120.418 235.046C79.9212 214.476 65.142 162.256 87.4013 118.401C109.661 74.5458 160.554 55.6646 201.051 76.2349C241.548 96.8052 256.327 149.025 234.068 192.88C211.788 236.736 160.915 255.617 120.418 235.046Z" fill="url(#paint2_linear_896_575)"/>
<defs>
<linearGradient id="paint0_linear_896_575" x1="516.717" y1="257.022" x2="168.387" y2="158.452" gradientUnits="userSpaceOnUse">
<stop stop-color="#9725AA"/>
<stop offset="0.9964" stop-color="#5C1F71"/>
</linearGradient>
<linearGradient id="paint1_linear_896_575" x1="515.804" y1="260.248" x2="167.473" y2="161.678" gradientUnits="userSpaceOnUse">
<stop stop-color="#9528EB"/>
<stop offset="0.9964" stop-color="#760F7E"/>
</linearGradient>
<linearGradient id="paint2_linear_896_575" x1="159.258" y1="36.8961" x2="164.705" y2="476.761" gradientUnits="userSpaceOnUse">
<stop stop-color="#D822F5"/>
<stop offset="0.9964" stop-color="#7109A2"/>
</linearGradient>
</defs>
</svg>
