<svg fill="none" xmlns="http://www.w3.org/2000/svg">
<path fill-rule="evenodd" clip-rule="evenodd" d="M271.26 211.103C263.394 243.928 244.993 273.397 219.789 295.039C193.805 317.351 160.941 341.211 128.953 333.302C97.1255 325.433 91.7324 280.195 67.6774 257.431C48.1703 238.97 12.5615 239.598 2.79018 213.907C-7.01231 188.135 14.9285 161.009 20.5058 133.407C27.0483 101.028 17.4141 63.6966 38.2549 38.3948C60.2658 11.6727 96.6911 -2.19867 129.659 0.890091C161.356 3.85981 182.375 32.9331 206.397 54.1482C227.988 73.2176 250.96 90.7212 262.218 117.964C274.254 147.089 278.773 179.746 271.26 211.103Z" fill="url(#paint0_linear_1110_1453)"/>
<defs>
<linearGradient id="paint0_linear_1110_1453" x1="271.752" y1="210.633" x2="6.20668" y2="128.354" gradientUnits="userSpaceOnUse">
<stop stop-color="#B240CF" stop-opacity="0.51"/>
<stop offset="1" stop-color="#8C4EC2" stop-opacity="0.27"/>
</linearGradient>
</defs>
</svg>
