<svg id="Слой_1" data-name="Слой 1" xmlns="http://www.w3.org/2000/svg" xmlns:xlink="http://www.w3.org/1999/xlink" viewBox="0 0 283.03 231.71">
  <defs>
    <linearGradient id="Безымянный_градиент_31" data-name="Безымянный градиент 31" x1="214.79" y1="362.57" x2="346.29" y2="307.4" gradientUnits="userSpaceOnUse">
      <stop offset="0" stop-color="#058993"/>
      <stop offset="1" stop-color="#936aab"/>
    </linearGradient>
  </defs>
  <title>аркада_лого</title>
  <g>
    <path d="M280.22,220.55h.08c17.9.11,33.91,13.17,45.33,34.23,11.18,20.61,18,49,17.91,80.34h0v.5c-.19,31.47-7.37,60-18.82,80.61-11.69,21.07-27.91,34.08-45.86,34h-.09c-17.9-.11-33.91-13.17-45.33-34.23-11.18-20.61-18-49-17.91-80.34h0v-.5c.19-31.47,7.37-60,18.82-80.61,11.69-21.08,27.9-34.08,45.86-34Zm.06,4.81h-.08c-16.06-.06-30.8,12-41.65,31.54-11.08,20-18,47.65-18.22,78.29v.5c-.11,30.49,6.52,58.07,17.35,78,10.59,19.52,25.12,31.63,41.1,31.72h.08c16.06.06,30.81-12,41.65-31.54,11.08-20,18-47.65,18.22-78.29v-.5c.11-30.49-6.52-58.07-17.35-78-10.59-19.52-25.12-31.63-41.1-31.72ZM176.06,253.62a25.23,25.23,0,0,0-4.51,4.45c-5.84,7.46-6.86,17.69-3.65,29.57,3.09,11.44,10.14,24.51,20.59,38.11,11.42,14.85,26.94,30.4,45.82,45.18,28.41,22.24,59.08,38.59,85.71,47,27.11,8.6,50.26,9,63-.78a25.23,25.23,0,0,0,4.51-4.45c5.84-7.46,6.86-17.69,3.65-29.57-3.09-11.44-10.14-24.51-20.59-38.11-11.42-14.85-26.94-30.4-45.82-45.18-28.41-22.24-59.08-38.59-85.71-47-27.11-8.6-50.26-9-63,.78Zm61.57,3.82c-25.64-8.14-47.21-8.78-58.62,0a20.46,20.46,0,0,0-3.66,3.61c-4.83,6.17-5.59,15-2.79,25.37,2.93,10.84,9.69,23.33,19.74,36.41,11.19,14.56,26.42,29.81,45,44.33,27.93,21.87,58.06,37.94,84.2,46.23,25.64,8.14,47.21,8.78,58.62,0a20.48,20.48,0,0,0,3.66-3.61c4.83-6.17,5.59-15,2.79-25.37-2.93-10.84-9.68-23.33-19.74-36.41-11.19-14.56-26.42-29.81-45-44.33-27.93-21.87-58.06-37.94-84.2-46.23ZM384,254.37c-12.63-9.89-35.78-9.64-63-1.23-26.73,8.26-57.6,24.38-86.27,46.42-19.12,14.7-34.87,30.19-46.49,45C177.66,358.07,170.5,371,167.3,382.44c-3.32,11.84-2.41,22.06,3.35,29.55h0a25.09,25.09,0,0,0,4.44,4.47c12.63,9.89,35.78,9.64,63,1.23,26.73-8.26,57.6-24.38,86.27-46.42,19.12-14.7,34.87-30.19,46.49-45,10.56-13.49,17.73-26.47,20.93-37.86,3.32-11.83,2.41-22.05-3.34-29.54h0a25.14,25.14,0,0,0-4.46-4.47Zm.63,7.4a20.24,20.24,0,0,0-3.59-3.61c-11.31-8.86-32.89-8.37-58.63-.42-26.22,8.1-56.54,23.95-84.74,45.62C218.85,317.82,203.39,333,192,347.54c-10.17,13-17,25.4-20.08,36.2-2.9,10.35-2.24,19.12,2.52,25.3h0a20.23,20.23,0,0,0,3.6,3.6c11.31,8.86,32.89,8.37,58.63.42,26.22-8.1,56.54-23.95,84.74-45.62,18.81-14.46,34.27-29.66,45.64-44.18,10.17-13,17-25.4,20.08-36.2,2.9-10.35,2.24-19.12-2.52-25.3ZM280.22,220.55h0c-18-.06-34.16,12.94-45.86,34-11.45,20.64-18.63,49.14-18.82,80.61v.5h0c-.11,31.33,6.74,59.73,17.91,80.34,11.42,21.06,27.43,34.12,45.33,34.23h.09c18,.06,34.16-12.94,45.86-34,11.45-20.64,18.63-49.14,18.82-80.61v-.5h0c.11-31.33-6.74-59.73-17.91-80.34-11.42-21.06-27.43-34.12-45.33-34.23Zm.06,4.81h-.08c-16.06-.06-30.8,12-41.65,31.54-11.08,20-18,47.65-18.22,78.29v.5c-.11,30.49,6.52,58.07,17.35,78,10.59,19.52,25.12,31.63,41.1,31.72h.08c16.06.06,30.81-12,41.65-31.54,11.08-20,18-47.65,18.22-78.29v-.5c.11-30.49-6.52-58.07-17.35-78-10.59-19.52-25.12-31.63-41.1-31.72ZM176.06,253.62a25.23,25.23,0,0,0-4.51,4.45c-5.84,7.46-6.86,17.69-3.65,29.57,3.09,11.44,10.14,24.51,20.59,38.11,11.42,14.85,26.94,30.4,45.82,45.18,28.41,22.24,59.08,38.59,85.71,47,27.11,8.6,50.26,9,63-.78a25.23,25.23,0,0,0,4.51-4.45c5.84-7.46,6.86-17.69,3.65-29.57-3.09-11.44-10.14-24.51-20.59-38.11-11.42-14.85-26.94-30.4-45.82-45.18-28.41-22.24-59.08-38.59-85.71-47-27.11-8.6-50.26-9-63,.78Zm61.57,3.82c-25.64-8.14-47.21-8.78-58.62,0a20.46,20.46,0,0,0-3.66,3.61c-4.83,6.17-5.59,15-2.79,25.37,2.93,10.84,9.69,23.33,19.74,36.41,11.19,14.56,26.42,29.81,45,44.33,27.93,21.87,58.06,37.94,84.2,46.23,25.64,8.14,47.21,8.78,58.62,0a20.48,20.48,0,0,0,3.66-3.61c4.83-6.17,5.59-15,2.79-25.37-2.93-10.84-9.68-23.33-19.74-36.41-11.19-14.56-26.42-29.81-45-44.33-27.93-21.87-58.06-37.94-84.2-46.23ZM384,254.37c-12.63-9.89-35.78-9.64-63-1.23-26.73,8.26-57.6,24.38-86.27,46.42-19.12,14.7-34.87,30.19-46.49,45C177.66,358.07,170.5,371,167.3,382.44c-3.32,11.84-2.41,22.06,3.35,29.55h0a25.09,25.09,0,0,0,4.44,4.47c12.63,9.89,35.78,9.64,63,1.23,26.73-8.26,57.6-24.38,86.27-46.42,19.12-14.7,34.87-30.19,46.49-45,10.56-13.49,17.73-26.47,20.93-37.86,3.32-11.83,2.41-22.05-3.34-29.54h0a25.14,25.14,0,0,0-4.46-4.47Zm.63,7.4a20.24,20.24,0,0,0-3.59-3.61c-11.31-8.86-32.89-8.37-58.63-.42-26.22,8.1-56.54,23.95-84.74,45.62C218.85,317.82,203.39,333,192,347.54c-10.17,13-17,25.4-20.08,36.2-2.9,10.35-2.24,19.12,2.52,25.3h0a20.23,20.23,0,0,0,3.6,3.6c11.31,8.86,32.89,8.37,58.63.42,26.22-8.1,56.54-23.95,84.74-45.62,18.81-14.46,34.27-29.66,45.64-44.18,10.17-13,17-25.4,20.08-36.2,2.9-10.35,2.24-19.12-2.52-25.3Z" transform="translate(-138.03 -219.55)" style="fill: #fff;stroke: #fff;stroke-miterlimit: 10;stroke-width: 2px;fill-rule: evenodd"/>
    <g>
      <path d="M279.54,357.51c-11.1,10.17-24.83,25.72-36.21,33.49a67.63,67.63,0,0,1-72.64,2.13c-19.48-11.81-32.38-32.39-32.66-57.73.28-25.34,13.18-45.92,32.66-57.73a67.63,67.63,0,0,1,72.64,2.13c11.39,7.77,25.11,23.32,36.21,33.49,11.1-10.17,24.83-25.72,36.21-33.49a67.63,67.63,0,0,1,72.64-2.13c19.48,11.81,32.38,32.39,32.66,57.73-.28,25.34-13.18,45.92-32.66,57.73A67.63,67.63,0,0,1,315.76,391c-11.39-7.77-25.11-23.32-36.21-33.49Zm51.21-50.92c-1.45,1.11-28.61,28.08-29,29.05l11.67,11.41c2.47,2.47,15.1,15.42,17.37,17.17,8.1,6.23,15.73,8.38,26.73,7.85,21.42-3.29,33.28-19.5,33.18-36.67.1-17.16-11.76-33.37-33.18-36.67-11-.52-18.63,1.62-26.73,7.85Zm-73.38,28.58c-4-3.23-8-7.74-11.67-11.41-2.47-2.47-15.1-15.42-17.37-17.17-8.1-6.23-15.73-8.38-26.73-7.85-21.42,3.29-33.28,19.5-33.18,36.67-.1,17.16,11.76,33.37,33.18,36.67,11,.52,18.63-1.62,26.73-7.85,2.27-1.74,14.89-14.7,17.37-17.17Z" transform="translate(-138.03 -219.55)" style="fill-rule: evenodd;fill: url(#Безымянный_градиент_31)"/>
      <path d="M138.47,328.06a66.8,66.8,0,0,1,32.21-50.38,67.63,67.63,0,0,1,72.64,2.13c11.39,7.77,25.11,23.32,36.21,33.49l-22.17,21.87c-4-3.23-8-7.74-11.67-11.41-2.47-2.47-15.1-15.42-17.37-17.17-8.1-6.23-15.73-8.38-26.73-7.85-21.42,3.29-33.28,19.5-33.18,36.67a36.48,36.48,0,0,0,1.19,9.48A77.73,77.73,0,0,1,138.47,328.06Z" transform="translate(-138.03 -219.55)" style="fill: #40bcce;fill-rule: evenodd"/>
      <path d="M194.45,298.75a47,47,0,0,1,5.34.3c-20.27,3.91-31.47,19.68-31.37,36.35-.1,16.67,11.09,32.44,31.37,36.35a47.14,47.14,0,0,1-5.34.3c-22.85,0-41.38-16.41-41.38-36.66S171.6,298.75,194.45,298.75Z" transform="translate(-138.03 -219.55)" style="fill: #058993;fill-rule: evenodd"/>
      <path d="M199.79,299.05l-5.34-.3a47,47,0,0,1,5.34.3Zm-5.34-.3c-22.85,0-41.38,16.41-41.38,36.66q0,1.48.13,2.93a79.09,79.09,0,0,0,16.41,6.55l-.07-.26v0q-.09-.35-.17-.71h0v0q-.08-.35-.16-.71v0h0q-.08-.37-.15-.75v0q-.21-1.13-.35-2.27v0h0q0-.37-.08-.74h0c0-.24,0-.48-.06-.72v0h0c0-.23,0-.47,0-.7v-.1q0-.74-.05-1.48v-.07h0c0-.25,0-.49,0-.74s0-.52,0-.78v0c0-.25,0-.5,0-.76h0l0-.33c0-.16,0-.32,0-.48l0-.23c0-.18,0-.36,0-.54l0-.35c0-.15,0-.29,0-.44l0-.33c0-.15,0-.3.05-.45s0-.25,0-.37l.05-.39.06-.42.06-.36.07-.39.07-.39.07-.38.08-.4.07-.34.1-.44.08-.34.1-.4.11-.41.09-.33.12-.41.1-.35.12-.4.11-.35.13-.39.13-.36.13-.37.13-.35.15-.4.13-.33.16-.39.13-.31.19-.44.12-.28.19-.42.14-.29.21-.43.14-.27.21-.42.15-.29.22-.41.15-.27.24-.41.15-.26.26-.43.13-.22.28-.44.16-.24.28-.43.14-.2.31-.44.15-.2.32-.44.11-.15.37-.49.08-.1.41-.52.08-.1a35.8,35.8,0,0,1,3.7-3.87l.09-.08.52-.45.09-.08.56-.46.07-.06.51-.41.15-.12.49-.37.17-.13.52-.38.14-.1.5-.35.21-.14.51-.34.18-.12.53-.34.19-.12.54-.33.18-.11.55-.31.21-.11.53-.29.25-.13.53-.27.22-.11.57-.28.23-.11.56-.26.25-.11.57-.25.25-.1.56-.23.28-.11.57-.22.26-.1.59-.21.25-.09.64-.22.21-.07.68-.21.17-.05.72-.21.18,0,.73-.19.16,0,.78-.19.11,0,.81-.18.15,0-4.52-.47Zm4.52.47.81-.17Z" transform="translate(-138.03 -219.55)" style="fill: #058993;fill-rule: evenodd"/>
      <g>
        <path d="M420.61,342.76a66.8,66.8,0,0,1-32.21,50.38A67.63,67.63,0,0,1,315.76,391c-11.39-7.77-25.11-23.32-36.21-33.49l22.17-21.87c4,3.23,8,7.74,11.67,11.41,2.47,2.47,15.1,15.42,17.37,17.17,8.1,6.23,15.73,8.38,26.73,7.85,21.42-3.29,33.28-19.5,33.18-36.67a36.47,36.47,0,0,0-1.19-9.48A77.73,77.73,0,0,1,420.61,342.76Z" transform="translate(-138.03 -219.55)" style="fill: #936aab;fill-rule: evenodd"/>
        <g>
          <path d="M364.63,372.06a47.16,47.16,0,0,1-5.34-.3c20.27-3.91,31.47-19.68,31.37-36.35.1-16.67-11.09-32.44-31.37-36.35a47,47,0,0,1,5.34-.3c22.85,0,41.38,16.41,41.38,36.66S387.49,372.06,364.63,372.06Z" transform="translate(-138.03 -219.55)" style="fill: #058993;fill-rule: evenodd"/>
          <path d="M359.3,371.76l5.34.3a47.16,47.16,0,0,1-5.34-.3Zm5.34.3c22.85,0,41.38-16.41,41.38-36.66q0-1.48-.13-2.93a79.11,79.11,0,0,0-16.41-6.55l.07.26v0c.06.24.12.47.17.71h0v0q.08.35.16.71v0h0q.08.37.15.75v0q.21,1.13.35,2.27v0h0c0,.25.06.49.08.74h0q0,.36.06.72v0h0q0,.35,0,.7v.1q0,.74.05,1.48v.07h0q0,.37,0,.74c0,.26,0,.52,0,.78v0q0,.38,0,.76h0l0,.33c0,.16,0,.32,0,.48l0,.23c0,.18,0,.36,0,.54l0,.35c0,.15,0,.29,0,.44l0,.33c0,.15,0,.3-.05.45s0,.25,0,.37l-.05.39-.06.42-.06.36-.07.39-.07.39-.07.38-.08.4-.07.34-.1.44-.08.33-.1.4-.11.41-.09.33-.12.41-.11.35-.12.4-.11.35-.13.39-.13.36-.13.37-.13.35-.15.4-.13.33-.16.39-.13.31-.19.44-.12.28-.2.42-.14.29-.21.43-.14.27-.21.42-.15.29-.22.41-.15.27-.24.41-.15.26-.26.43-.13.22-.28.44-.16.24-.29.43-.14.2-.31.44-.15.2-.32.44-.11.15-.37.49-.08.1-.41.52-.09.1a35.78,35.78,0,0,1-3.7,3.87l-.09.08-.52.45-.09.08-.55.46-.07.06-.51.41-.15.12-.49.37-.17.13-.52.38-.14.1-.5.35-.21.14-.51.34-.18.12-.53.34-.19.12-.54.33-.18.11-.55.31-.2.12-.53.29-.25.13-.53.27-.22.11-.57.28-.23.11-.56.26-.25.11-.57.25-.25.1-.56.23-.28.11-.57.22-.26.1-.59.21-.25.09-.64.22-.21.07-.68.21-.17.05-.72.21-.18,0-.73.2-.16,0-.77.19-.11,0-.81.18-.15,0,4.52.47Zm-4.52-.47-.81.17Z" transform="translate(-138.03 -219.55)" style="fill: #765091;fill-rule: evenodd"/>
        </g>
      </g>
      <g>
        <path d="M257.85,355.37c-34.2,41-77.66,38-99.53,13.55C181.57,409.21,235.12,395.75,257.85,355.37Z" transform="translate(-138.03 -219.55)" style="fill: #40bcce;fill-rule: evenodd"/>
        <path d="M301.24,316.31c34.2-41,77.66-38,99.53-13.55C377.51,262.47,324,275.93,301.24,316.31Z" transform="translate(-138.03 -219.55)" style="fill: #765091;fill-rule: evenodd"/>
      </g>
    </g>
  </g>
</svg>
