<svg width="319" height="278" viewBox="0 0 319 278" fill="none" xmlns="http://www.w3.org/2000/svg">
<path fill-rule="evenodd" clip-rule="evenodd" d="M158.906 277.669C125.223 279.871 91.6284 271.016 63.4962 253.347C34.4931 235.131 1.97611 210.8 0.0632107 177.905C-1.84017 145.174 39.7747 126.634 54.3997 96.9191C66.2597 72.8222 55.1207 38.9947 76.7685 22.0575C98.4853 5.0663 130.89 17.9957 158.906 15.1539C191.77 11.8204 224.578 -8.43122 254.914 3.98745C286.954 17.1033 310.984 47.7912 317.791 80.1961C324.336 111.352 302.786 140.035 289.631 169.259C277.806 195.527 267.886 222.65 245.195 241.467C220.938 261.583 191.081 275.565 158.906 277.669Z" fill="url(#paint0_linear_1110_1091)"/>
<defs>
<linearGradient id="paint0_linear_1110_1091" x1="159.5" y1="278" x2="159.5" y2="-1.39439e-05" gradientUnits="userSpaceOnUse">
<stop stop-color="#B240CF" stop-opacity="0.51"/>
<stop offset="1" stop-color="#8C4EC2" stop-opacity="0.27"/>
</linearGradient>
</defs>
</svg>
