<svg width="25" height="25" viewBox="0 0 25 25" fill="none" xmlns="http://www.w3.org/2000/svg">
<path d="M24.2619 0.738132C23.2777 -0.246044 21.6818 -0.246044 20.6976 0.738132L12.5 8.93576L4.30237 0.738132C3.3182 -0.246044 1.72231 -0.246044 0.738132 0.738132C-0.246044 1.72231 -0.246044 3.3182 0.738132 4.30237L8.93576 12.5L0.738132 20.6976C-0.246044 21.6818 -0.246044 23.2777 0.738132 24.2619C1.72231 25.246 3.3182 25.246 4.30237 24.2619L12.5 16.0642L20.6976 24.2619C21.6818 25.246 23.2777 25.246 24.2619 24.2619C25.246 23.2777 25.246 21.6818 24.2619 20.6976L16.0642 12.5L24.2619 4.30237C25.246 3.3182 25.246 1.72231 24.2619 0.738132V0.738132Z" fill="#FF3030"/>
</svg>
